<svg xmlns="http://www.w3.org/2000/svg" width="0" height="0">
	<defs>
		<symbol>
			<g id="logo-teleport" transform="translate(0.161616,53.161616) scale(0.100000,-0.100000)">
				<path d="M0 521 c0 -9 34 -23 200 -84 l65 -24 3 -207 2 -207 73 3 72 3 3 203
				2 202 135 0 135 0 0 60 0 60 -345 0 c-201 0 -345 -4 -345 -9z"></path>
				<path d="M4970 470 l0 -60 135 0 135 0 2 -202 3 -203 72 -3 73 -3 2 207 3 207
				65 24 c166 61 200 75 200 84 0 5 -144 9 -345 9 l-345 0 0 -60z"></path>
				<path d="M790 230 l0 -230 285 0 286 0 -3 58 -3 57 -212 3 -213 2 0 30 0 30
				185 0 185 0 0 55 0 55 -185 0 -185 0 0 30 0 30 215 0 215 0 0 55 0 55 -285 0
				-285 0 0 -230z"></path>
				<path d="M1462 233 l3 -228 273 -3 273 -2 -3 57 -3 58 -202 3 -203 2 0 170 0
				170 -70 0 -70 0 2 -227z"></path>
				<path d="M2110 230 l0 -230 283 2 282 3 0 55 0 55 -212 3 -213 2 0 30 0 30
				185 0 185 0 0 55 0 55 -185 0 -185 0 0 30 0 30 215 0 215 0 0 55 0 55 -285 0
				-285 0 0 -230z"></path>
				<path d="M2782 233 l3 -228 68 -3 67 -3 0 71 0 70 163 0 c89 0 179 5 200 11
				81 22 138 107 122 181 -9 38 -61 97 -102 114 -24 11 -94 14 -278 14 l-245 0 2
				-227z m469 107 c26 -14 24 -55 -3 -74 -18 -13 -53 -16 -175 -16 l-153 0 0 50
				0 50 156 0 c88 0 164 -4 175 -10z"></path>
				<path d="M3590 442 c-19 -9 -45 -32 -57 -51 -21 -31 -23 -46 -23 -160 0 -107
				3 -131 20 -158 38 -63 60 -68 305 -68 245 0 267 5 305 68 17 27 20 51 20 164
				0 127 -1 132 -26 163 -49 57 -62 60 -296 60 -183 0 -218 -3 -248 -18z m418
				-104 c8 -8 12 -47 12 -109 0 -79 -3 -98 -16 -103 -31 -12 -329 -7 -342 6 -8 8
				-12 46 -12 105 0 77 3 94 18 102 25 15 325 14 340 -1z"></path>
				<path d="M4270 230 l0 -230 65 0 65 0 0 80 0 80 103 -1 102 0 65 -79 65 -80
				78 0 c42 0 77 2 77 3 0 2 -31 40 -70 83 l-69 79 40 19 c79 37 112 130 67 195
				-52 76 -50 76 -334 79 l-254 3 0 -231z m458 111 c8 -4 12 -19 10 -32 l-3 -24
				-167 -3 -168 -2 0 35 0 35 158 0 c86 0 163 -4 170 -9z"></path>
			</g>
		</symbol>
        <g id="menu-icon-svg">
			<rect x="4" y="11.491" width="76" height="4.5"/>
			<rect x="4" y="29.453" width="76" height="4.5"/>
			<rect x="4" y="47.707" width="76" height="4.5"/>
		</g>
		<g id="arrow-left-icon">
			<path d="M14.651,22c-0.105,0-0.213-0.033-0.303-0.102L0,11L14.349,0.102c0.221-0.167,0.533-0.125,0.701,0.096
		c0.166,0.22,0.123,0.533-0.097,0.7L1.652,11l13.301,10.102c0.22,0.167,0.263,0.48,0.097,0.7C14.951,21.932,14.802,22,14.651,22z"></path>
		</g>
		<g id="arrow-right-icon">
			<path d="M0.5,22c-0.15,0-0.3-0.068-0.398-0.198c-0.166-0.22-0.123-0.533,0.097-0.7L13.499,11L0.197,0.898
				c-0.219-0.167-0.262-0.48-0.096-0.7C0.27-0.023,0.583-0.065,0.803,0.102L15.15,11L0.803,21.898C0.712,21.967,0.605,22,0.5,22z"></path>
		</g>
		<g id="email-icon">
			<path d="M27,8H6c-1.1,0-2,0.9-2,2v12c0,1.1,0.9,2,2,2h21c1.1,0,2-0.9,2-2V10C29,8.9,28.1,8,27,8z M26.5,9l-10,8.7L6.5,9H26.5z
				 M28,22c0,0.6-0.4,1-1,1H6c-0.6,0-1-0.5-1-1V10c0-0.3,0.1-0.5,0.3-0.7L16.5,19l11.2-9.7C27.9,9.5,28,9.7,28,10V22z"></path>
		</g>
		<g id="edit-icon">
			<path d="M74.567,27.719c-1.321-1.323-3.627-1.322-4.95,0L49.583,47.753c-0.206,0.205-0.752,0.751-1.115,4.981l-0.102,1.187
				l1.186-0.104c4.239-0.373,4.776-0.91,4.979-1.112l20.035-20.036C75.932,31.303,75.932,29.083,74.567,27.719z M73.153,31.254
				L53.187,51.221c-0.35,0.149-1.447,0.335-2.6,0.477c0.138-1.151,0.324-2.248,0.476-2.596l19.971-19.97
				c0.566-0.566,1.553-0.566,2.121,0C73.737,29.717,73.737,30.669,73.153,31.254z"></path>
			<path d="M72.523,66.246h-36.85V29.395h29.439l2-2H34.673c-0.552,0-1,0.448-1,1v38.851c0,0.553,0.448,1,1,1h38.85
				c0.553,0,1-0.447,1-1V35.54l-2,2V66.246z"></path>
		</g>
		<g id="phone-icon">
			<path d="M43.768,4.791H20.232c-1.562,0-2.832,1.224-2.832,2.727v48.966c0,1.502,1.27,2.726,2.832,2.726h23.536
				c1.563,0,2.832-1.224,2.832-2.726V7.518C46.6,6.014,45.33,4.791,43.768,4.791z M19.336,52.365h25.33v4.118
				c0,0.437-0.404,0.792-0.898,0.792H20.232c-0.494,0-0.896-0.355-0.896-0.792V52.365z M44.666,12.887v37.542h-25.33V12.887H44.666z
				 M20.232,6.726h23.536c0.494,0,0.898,0.355,0.898,0.792v3.433h-25.33V7.518C19.336,7.081,19.738,6.726,20.232,6.726z"></path>
			<path d="M32,56.355c0.874,0,1.584-0.71,1.584-1.584c0-0.871-0.71-1.582-1.584-1.582s-1.584,0.711-1.584,1.582
				C30.416,55.646,31.126,56.355,32,56.355z"></path>
		</g>
		<g id="menu2-icon">
			<path d="M25.916,66.35c-6.466,0-11.727-5.26-11.727-11.726s5.261-11.726,11.727-11.726s11.727,5.26,11.727,11.726
				S32.382,66.35,25.916,66.35z M25.916,44.898c-5.363,0-9.727,4.363-9.727,9.726c0,5.362,4.364,9.726,9.727,9.726
				s9.727-4.363,9.727-9.726C35.643,49.261,31.279,44.898,25.916,44.898z"></path>
			<path d="M50.065,66.35c-6.466,0-11.726-5.26-11.726-11.726s5.26-11.726,11.726-11.726c6.465,0,11.726,5.26,11.726,11.726
				S56.53,66.35,50.065,66.35z M50.065,44.898c-5.363,0-9.726,4.363-9.726,9.726c0,5.362,4.363,9.726,9.726,9.726
				s9.726-4.363,9.726-9.726C59.791,49.261,55.428,44.898,50.065,44.898z"></path>
			<path d="M75.513,66.35c-6.467,0-11.728-5.26-11.728-11.726s5.261-11.726,11.728-11.726c6.466,0,11.727,5.26,11.727,11.726
				C87.238,61.09,81.978,66.35,75.513,66.35z M75.513,44.898c-5.364,0-9.728,4.363-9.728,9.726c0,5.362,4.363,9.726,9.728,9.726
				c5.362,0,9.726-4.363,9.727-9.726C85.239,49.261,80.876,44.898,75.513,44.898z"></path>
		</g>
		<g id="trash-icon">
			<path d="M80,22.386H62.667v-6.147H37.333v6.147H20v15.5h7v45.875h46V37.886h7V22.386z M39.333,18.239h21.334v4.147H39.333V18.239z
			M71,81.761H29V37.886h42V81.761z M78,35.886h-5H27h-5v-11.5h15.333h25.334H78V35.886z"></path>
		</g>
		<g id="link-icon">
			<path d="M45.314,56.69l-2.828-2.828c-3.509-3.509-3.509-9.219,0-12.728l16.971-16.971c3.509-3.509,9.219-3.509,12.728,0
				l2.828,2.828c3.509,3.509,3.509,9.219,0,12.728l-8.721,8.721l-1.414-1.414l8.721-8.721c2.729-2.729,2.729-7.171,0-9.899
				l-2.828-2.828c-2.729-2.729-7.17-2.729-9.899,0L43.9,42.547c-2.729,2.729-2.729,7.171,0,9.9l2.828,2.828L45.314,56.69z"></path>
			<path d="M27.816,75.837l-2.828-2.828c-3.509-3.509-3.509-9.219,0-12.728l8.721-8.721l1.414,1.414l-8.721,8.721
				c-2.729,2.729-2.729,7.171,0,9.899l2.828,2.828c2.729,2.729,7.171,2.729,9.899,0l16.97-16.97c2.729-2.729,2.729-7.171,0-9.899
				l-2.828-2.828l1.414-1.414l2.828,2.828c3.509,3.509,3.509,9.219,0,12.728l-16.97,16.97C37.035,79.347,31.325,79.347,27.816,75.837z
				"></path>
		</g>
		<g id="upload-icon">
			<path style="fill-rule:evenodd;clip-rule:evenodd;" d="M25,3.828v24.243h2V3.828l4.657,4.657l1.414-1.414L26,0l-7.071,7.071
				l1.414,1.414L25,3.828z M26,2.828l0.243,0.243h-0.485L26,2.828z M50,28.071v8H2v-8H0v10h52v-10H50z"></path>
		</g>
		<g id="check-icon">
			<path style="fill-rule:evenodd;clip-rule:evenodd;" d="M15.852,0.145c-0.194-0.193-0.508-0.193-0.702,0l-9.669,9.65L0.855,5.178
				c-0.196-0.195-0.513-0.195-0.708,0c-0.196,0.195-0.196,0.512,0,0.707l4.959,4.95c0.003,0.003,0.008,0.004,0.011,0.007
				c0.003,0.003,0.004,0.007,0.006,0.01c0.194,0.194,0.508,0.194,0.702,0L15.852,0.845C16.045,0.652,16.045,0.338,15.852,0.145z"/>
		</g>		
		<g id="add-photo-icon">
			<path d="M59.907,52.489H4.092V16.125h18.792l3.998-4.614H37.22l4.614,4.614h18.073V52.489z M5.938,50.645h52.125
				V17.969H41.069l-4.614-4.614h-8.729l-3.997,4.614H5.938V50.645z"></path>
			<path d="M32,47.189c-6.784,0-12.303-5.521-12.303-12.304c0-6.783,5.52-12.302,12.303-12.302
				c6.782,0,12.302,5.52,12.302,12.302C44.303,41.669,38.782,47.189,32,47.189z M32,24.43c-5.766,0-10.458,4.69-10.458,10.456
				c0,5.767,4.692,10.458,10.458,10.458s10.457-4.691,10.457-10.458C42.457,29.12,37.767,24.43,32,24.43z"></path>
		</g>			
		<g id="money-icon">
			<path d="M55.938,53.954H11.415V10.783c0-0.345-0.28-0.625-0.625-0.625c-0.345,0-0.625,0.28-0.625,0.625v43.796
			c0,0.345,0.28,0.625,0.625,0.625h45.148c0.345,0,0.625-0.28,0.625-0.625S56.283,53.954,55.938,53.954z"></path>
			<path d="M31.467,26.764l-13.625,20.33c-0.093,0.139-0.127,0.305-0.095,0.469c0.032,0.164,0.126,0.306,0.266,0.399
			c0.104,0.069,0.224,0.105,0.347,0.105c0.21,0,0.405-0.103,0.52-0.277l13.3-19.842l7.277,4.246c0.273,0.161,0.648,0.077,0.829-0.183
			l9.873-14.221l1.388,2.963c0.234,0.5,0.521,0.469,0.642-0.07l2.045-9.196c0.12-0.539-0.158-0.732-0.621-0.431l-7.9,5.132
			c-0.463,0.301-0.392,0.581,0.158,0.625l3.262,0.263l-9.543,13.747l-7.287-4.251C32.024,26.412,31.646,26.5,31.467,26.764z"></path>
		</g>
		<g id="like-icon">
			<path d="M51.027,82.704c-0.779,0-1.521-0.299-2.086-0.842c-0.041-0.039-4.903-4.741-24.542-24.38l-0.137-0.137
			c-0.202-0.2-0.301-0.315-0.4-0.431c-3.207-3.467-4.987-7.976-4.987-12.668c0-10.275,8.36-18.635,18.635-18.635
			c5.043,0,9.833,2.03,13.311,5.605c3.479-3.575,8.27-5.605,13.313-5.605c10.275,0,18.635,8.36,18.635,18.635
			c0,5.149-2.063,9.939-5.811,13.497c-0.055,0.064-0.105,0.115-0.142,0.151c-19.797,19.797-23.552,23.812-23.588,23.85
			c-0.551,0.589-1.324,0.938-2.124,0.958L51.027,82.704z M37.511,27.612c-9.173,0-16.635,7.462-16.635,16.635
			c0,4.187,1.592,8.214,4.482,11.34c0.098,0.113,0.168,0.195,0.316,0.342l0.14,0.14c19.633,19.633,24.47,24.31,24.513,24.352
			c0.189,0.182,0.435,0.282,0.693,0.284l0.042-0.001c0.261-0.007,0.521-0.124,0.705-0.321c0.029-0.032,3.815-4.079,23.632-23.896
			l0.144-0.155c3.371-3.179,5.228-7.471,5.228-12.084c0-9.173-7.462-16.635-16.635-16.635c-4.837,0-9.413,2.091-12.555,5.738
			l-0.758,0.879l-0.758-0.88C46.924,29.703,42.349,27.612,37.511,27.612z"></path>
		</g>
		<g id="help-icon">
			<path d="M50,80c-17.093,0-31-13.906-31-31s13.907-31,31-31s31,13.906,31,31S67.093,80,50,80z M50,20c-15.991,0-29,13.01-29,29
				s13.009,29,29,29s29-13.01,29-29S65.991,20,50,20z"></path>
			<path d="M46.914,55.775l-0.093-1.217c-0.281-2.528,0.562-5.29,2.902-8.099C51.83,43.979,53,42.153,53,40.046
				c0-2.388-1.498-3.979-4.447-4.026c-1.686,0-3.558,0.562-4.728,1.451l-1.124-2.949c1.545-1.124,4.213-1.873,6.694-1.873
				c5.384,0,7.817,3.324,7.817,6.881c0,3.184-1.778,5.478-4.025,8.146c-2.06,2.434-2.809,4.494-2.668,6.881l0.047,1.217H46.914z
				 M45.884,62.329c0-1.731,1.17-2.949,2.809-2.949c1.638,0,2.762,1.218,2.762,2.949c0,1.639-1.077,2.902-2.809,2.902
				C47.008,65.231,45.884,63.968,45.884,62.329z"></path>
		</g>
		<g id="logout-icon">
			<path d="M38.176,10.81c-0.312-0.125-0.688,0.044-0.812,0.354c-0.125,0.319,0.034,0.683,0.354,0.81
				c7.568,2.973,12.458,10.149,12.458,18.282c0,10.824-8.807,19.631-19.631,19.631S10.914,41.08,10.914,30.256
				c-0.002-7.908,4.705-15.009,11.993-18.088c0.316-0.137,0.465-0.505,0.331-0.82c-0.13-0.308-0.502-0.462-0.818-0.332
				c-7.751,3.277-12.758,10.829-12.756,19.24c0,11.514,9.367,20.881,20.881,20.881c11.514,0,20.881-9.367,20.881-20.881
				C51.426,21.605,46.225,13.973,38.176,10.81z"></path>
			<path d="M31.17,30.951V11.391c0-0.345-0.28-0.625-0.625-0.625s-0.625,0.28-0.625,0.625v19.561c0,0.345,0.28,0.625,0.625,0.625
				S31.17,31.296,31.17,30.951z"></path>
		</g>			
		<g id="setting-icon">
			<path d="M32,22.435c-5.382,0-9.762,4.29-9.762,9.565c0,5.275,4.379,9.57,9.762,9.57c5.381,0,9.759-4.295,9.759-9.57
				C41.759,26.724,37.381,22.435,32,22.435z M32,39.649c-4.322,0-7.836-3.433-7.836-7.649c0-4.214,3.514-7.643,7.836-7.643
				c4.32,0,7.834,3.429,7.834,7.643C39.834,36.217,36.32,39.649,32,39.649z"></path>
			<path d="M52.883,25.168l-0.271-0.096l-1.057-2.52l0.115-0.259c3.197-7.25,2.978-7.467,2.446-7.993l-4.265-4.16
				c-0.174-0.172-0.479-0.294-0.744-0.294c-0.239,0-0.967,0-7.266,2.853l-0.252,0.113l-2.599-1.047l-0.105-0.258
				c-2.96-7.334-3.265-7.334-4.002-7.334h-6.023c-0.734,0-1.069,0-3.815,7.347l-0.103,0.267l-2.585,1.054l-0.247-0.103
				c-4.263-1.798-6.752-2.709-7.401-2.709c-0.264,0-0.57,0.118-0.746,0.291l-4.268,4.172c-0.542,0.534-0.766,0.757,2.599,7.857
				l0.124,0.264l-1.057,2.516l-0.259,0.1c-7.508,2.902-7.508,3.184-7.508,3.941v5.899c0,0.758,0,1.072,7.521,3.768l0.269,0.095
				l1.057,2.51l-0.113,0.257c-3.198,7.254-2.995,7.45-2.45,7.991l4.258,4.167c0.179,0.172,0.487,0.294,0.75,0.294
				c0.238,0,0.964,0,7.266-2.851l0.252-0.119l2.601,1.052l0.102,0.261c2.964,7.332,3.269,7.332,4.006,7.332h6.025
				c0.756,0,1.068,0,3.817-7.353l0.104-0.267l2.589-1.049l0.247,0.102c4.26,1.803,6.747,2.712,7.393,2.712
				c0.262,0,0.571-0.114,0.749-0.291l4.276-4.18c0.538-0.537,0.761-0.758-2.609-7.85l-0.125-0.267l1.056-2.506l0.252-0.099
				c7.518-2.915,7.518-3.199,7.518-3.956v-5.896C60.404,28.167,60.404,27.854,52.883,25.168z M51.023,37.753l-1.382,3.287
				c-0.106,0.25-0.1,0.537,0.019,0.788c0.973,2.035,2.259,4.866,2.79,6.26l0.15,0.396l-3.578,3.5l-0.375-0.125
				c-1.417-0.48-4.419-1.698-6.608-2.628c-0.225-0.095-0.507-0.102-0.746-0.003l-3.351,1.355c-0.251,0.102-0.448,0.305-0.542,0.555
				c-0.946,2.55-2.025,5.235-2.564,6.389l-0.175,0.375h-5.079l-0.178-0.354c-0.665-1.322-1.902-4.248-2.77-6.405
				c-0.093-0.24-0.288-0.437-0.531-0.538l-3.363-1.362c-0.225-0.092-0.531-0.082-0.761,0.02c-2.159,0.988-5.064,2.249-6.446,2.753
				l-0.384,0.143l-3.58-3.504l0.139-0.393c0.48-1.362,1.701-4.261,2.66-6.422c0.106-0.243,0.11-0.511,0.007-0.758l-1.381-3.28
				c-0.105-0.25-0.308-0.443-0.565-0.534c-2.188-0.781-5.163-1.9-6.527-2.513L5.521,34.58v-4.929l0.371-0.178
				c1.326-0.627,4.295-1.833,6.539-2.7c0.247-0.095,0.44-0.279,0.542-0.521l1.388-3.287c0.106-0.253,0.1-0.54-0.017-0.79
				c-1.157-2.42-2.329-5.056-2.789-6.263l-0.152-0.397l3.576-3.497l0.374,0.125c1.383,0.463,4.378,1.67,6.62,2.626
				c0.237,0.098,0.5,0.1,0.741,0.003l3.352-1.361c0.243-0.102,0.441-0.308,0.534-0.555c0.795-2.134,1.935-5.042,2.563-6.387
				l0.174-0.375h5.079l0.182,0.359c0.657,1.317,1.894,4.248,2.763,6.412c0.097,0.239,0.294,0.435,0.531,0.531l3.357,1.356
				c0.232,0.096,0.54,0.088,0.755-0.012c2.174-0.993,5.093-2.257,6.459-2.754l0.386-0.135l3.579,3.49l-0.139,0.393
				c-0.488,1.376-1.707,4.273-2.659,6.422c-0.108,0.245-0.108,0.518-0.005,0.77l1.381,3.286c0.104,0.249,0.308,0.443,0.565,0.536
				c2.634,0.934,5.315,1.96,6.523,2.5l0.387,0.174v4.92l-0.368,0.18c-1.358,0.649-4.348,1.856-6.551,2.709
				C51.324,37.319,51.121,37.516,51.023,37.753z"></path>
		</g>			
		<g id="follow-icon">
			<path d="M57.334,35.153l-0.082-0.097c-0.391-0.483-1.246-1.17-2.493-1.646l-0.191-0.058
			c-1.299-0.599-2.476-1.001-2.821-1.114c-0.271-0.089-0.498-0.186-0.679-0.265c-1.433-0.707-1.595-1.12-1.618-1.184l-0.065-0.152
			L49.44,30.5c1.065-1.326,1.813-2.871,2.098-4.327l0.042-0.099c0.294-0.375,0.482-0.813,0.557-1.296
			c0.339-1.225,0.353-2.125,0.049-2.756l-0.027-0.056l0.014-0.062c0.378-1.583,0.742-4.548-1.075-6.617
			c-0.29-0.364-1.404-1.594-3.565-2.227l-1.054-0.361c-1.727-0.532-2.819-0.66-3.001-0.663c-0.115,0-0.218,0.014-0.368,0.047
			l-0.13,0.026c-0.076-0.012-0.155-0.019-0.244-0.019c-0.578,0-1.203,0.254-1.203,0.254c-0.609,0.256-3.703,1.683-4.684,4.715
			c-0.163,0.431-0.495,1.741-0.065,4.607l0.011,0.071l-0.045,0.06c-0.441,0.594-0.478,1.557-0.111,2.851
			c0.096,0.573,0.283,1.031,0.558,1.376l0.046,0.097c0.271,1.501,0.938,2.98,1.929,4.28l0.079,0.105l-0.074,0.105
			c-0.043,0.064-0.073,0.13-0.084,0.178c-0.152,0.434-1.315,1.121-3.118,1.843c-0.403-0.146-0.683-0.238-0.782-0.271
			c-0.365-0.122-0.67-0.253-0.917-0.361c-1.907-0.941-2.158-1.49-2.196-1.616l-0.1-0.223l0.088-0.207
			c1.431-1.783,2.435-3.859,2.821-5.824l0.059-0.135c0.396-0.503,0.649-1.091,0.744-1.732c0.455-1.639,0.479-2.845,0.069-3.686
			l-0.045-0.089l0.024-0.096c0.509-2.126,0.997-6.104-1.442-8.875c-0.387-0.485-1.873-2.135-4.777-2.985l-1.419-0.487
			c-2.369-0.728-3.839-0.887-4.03-0.889c-0.156,0-0.291,0.017-0.488,0.064l-0.19,0.031c-0.786-0.127-1.752,0.246-1.927,0.314
			c-0.818,0.343-4.965,2.261-6.28,6.327c-0.219,0.576-0.663,2.332-0.086,6.179l0.017,0.116l-0.072,0.096
			c-0.588,0.786-0.633,2.071-0.14,3.806c0.126,0.764,0.376,1.374,0.747,1.841l0.065,0.137c0.359,2.014,1.255,4.003,2.589,5.754
			l0.125,0.163l-0.119,0.172c-0.058,0.085-0.097,0.172-0.106,0.227c-0.331,0.943-4.022,2.592-7.256,3.579
			c-2.328,0.882-3.35,2.311-3.356,2.32c-3.206,4.76-3.612,14.979-3.626,15.418c0.05,2.658,1.257,3.198,1.489,3.276l0.204,0.089
			c7.093,3.095,17.453,3.698,18.612,3.757l0.362,0.011c0.346,0,0.697-0.019,1.026-0.037l0.029-0.001l0.107,0.008
			c0.086,0.021,0.156,0.032,0.228,0.032h0.001l0.049-0.002c0.469-0.024,11.592-0.656,18.533-3.771c0.379-0.1,1.603-0.626,1.713-3.21
			c2.475-0.214,8.396-0.896,12.417-2.699c0.298-0.078,1.273-0.492,1.306-2.591C60,45.755,59.613,38.543,57.334,35.153z M19.366,31.446
			l0.193-0.18l0.192,0.18c1.698,1.6,3.579,2.479,5.291,2.479c1.799,0,3.656-0.78,5.37-2.258l0.145-0.122l0.376,0.184
			c0.32,0.291,0.893,0.709,1.15,0.835l0.354,0.173l-0.038,0.036l0.136,0.082c0.324,0.191,0.669,0.378,1.063,0.574
			c0.399,0.177,0.741,0.31,1.104,0.43c0.071,0.024,1.765,0.571,3.696,1.465l0.345,0.107c1.835,0.699,2.611,1.684,2.639,1.718
			c2.848,4.228,3.327,13.456,3.374,14.488c-0.022,1.442-0.433,1.816-0.54,1.888c-6.383,2.857-16.026,3.6-17.892,3.719l-0.052,0.003
			l-0.053-0.016c-0.063-0.019-0.127-0.028-0.207-0.028H26.01l-0.066,0.003c-0.51,0.035-0.932,0.052-1.326,0.052h-0.309
			c-1.162-0.07-11.56-0.751-18.215-3.712c-0.134-0.056-0.527-0.51-0.556-1.836c0.001-0.099,0.343-10.06,3.332-14.5
			c0.146-0.184,0.959-1.131,2.583-1.751c1.427-0.439,4.96-1.61,6.892-3.009c0.081-0.049,0.161-0.131,0.247-0.219
			C18.733,32.078,19.027,31.762,19.366,31.446z M39.252,33.939l-0.264-0.077c-0.434-0.2-0.889-0.398-1.36-0.591
			c0.665-0.311,1.209-0.616,1.613-0.911c0.065-0.038,0.13-0.104,0.191-0.168c0.146-0.157,0.343-0.368,0.573-0.583l0.123-0.113
			l0.118,0.115c1.271,1.194,2.675,1.849,3.952,1.849c1.346,0,2.733-0.582,4.01-1.684l0.091-0.077l0.258,0.125
			c0.235,0.219,0.663,0.527,0.854,0.622l0.223,0.106l-0.027,0.027l0.14,0.082c0.243,0.145,0.503,0.283,0.794,0.427
			c0.299,0.132,0.553,0.232,0.822,0.322c0.052,0.017,1.301,0.418,2.745,1.087l0.254,0.078c1.315,0.503,1.887,1.193,1.942,1.265
			c2.125,3.15,2.468,9.978,2.499,10.739c-0.015,1.056-0.308,1.326-0.381,1.374c-3.998,1.789-9.738,2.461-12.152,2.673
			c-0.217-3.134-0.991-10.515-3.573-14.354l-0.109-0.131C42.065,35.495,40.919,34.577,39.252,33.939z M37.757,22.533l0.045-0.053
			c0.202-0.148,0.301-0.377,0.263-0.614c-0.48-2.883-0.168-4.093-0.061-4.398c0.837-2.567,3.47-3.765,3.988-3.977
			c0.104-0.04,0.305-0.1,0.518-0.136l0.064-0.015l0.397-0.021l0.003,0.027l0.12-0.011c0.089-0.007,0.175-0.021,0.235-0.034l0.134-0.03
			c0.085,0.002,1.125,0.137,2.632,0.599l1.063,0.365c1.93,0.57,2.824,1.635,2.989,1.85c1.551,1.76,1.135,4.408,0.748,5.831
			c-0.044,0.175-0.017,0.355,0.083,0.502l0.086,0.111c0.109,0.146,0.208,0.727-0.128,1.979c-0.063,0.38-0.204,0.685-0.406,0.888
			c-0.082,0.086-0.137,0.198-0.157,0.326c-0.523,3.073-3.275,6.508-6.174,6.508c-2.462,0-5.269-3.162-5.774-6.508
			c-0.021-0.127-0.075-0.239-0.164-0.34c-0.206-0.213-0.339-0.524-0.421-0.993C37.597,23.519,37.57,22.816,37.757,22.533z
			M16.333,19.221l0.067-0.077c0.26-0.187,0.386-0.481,0.338-0.785c-0.651-3.908-0.226-5.534-0.08-5.942
			c1.131-3.471,4.695-5.094,5.395-5.382c0.146-0.056,0.418-0.138,0.706-0.185l0.077-0.018L23.423,6.8l0.002,0.037l0.126-0.012
			c0.117-0.011,0.232-0.029,0.366-0.056l0.134-0.031c0.109,0.001,1.485,0.174,3.56,0.81l1.427,0.491
			c2.608,0.771,3.823,2.214,4.046,2.503c2.098,2.381,1.538,5.964,1.018,7.889c-0.061,0.222-0.024,0.453,0.103,0.641l0.116,0.149
			c0.191,0.256,0.263,1.113-0.164,2.7c-0.086,0.518-0.279,0.938-0.561,1.217c-0.103,0.11-0.17,0.254-0.199,0.417
			c-0.71,4.155-4.434,8.801-8.356,8.801c-3.333,0-7.133-4.276-7.819-8.798c-0.023-0.163-0.09-0.31-0.208-0.438
			c-0.286-0.295-0.467-0.72-0.578-1.352C16.106,20.577,16.072,19.62,16.333,19.221z"></path>
		</g>
		<g id="facebook-icon">
			<path d="M74.986,17.86l-9.058,0.004c-7.102,0-8.477,3.375-8.477,8.328v10.921h16.938l-0.005,17.106H57.451v43.894H39.784V54.219
			h-14.77V37.113h14.77V24.499c0-14.64,8.943-22.612,22.003-22.612l13.2,0.021V17.86z"></path>
		</g>
		<g id="gplus-icon">
			<path d="M53.267,56.855l-4.533-3.522c-1.38-1.144-3.27-2.656-3.27-5.422c0-2.778,1.889-4.544,3.527-6.18
				c5.28-4.157,10.557-8.581,10.557-17.903c0-9.586-6.031-14.629-8.923-17.022h7.795l8.181-5.14H41.816
				c-6.801,0-16.603,1.608-23.779,7.533c-5.408,4.666-8.046,11.099-8.046,16.892c0,9.831,7.548,19.798,20.88,19.798
				c1.259,0,2.636-0.124,4.022-0.252c-0.623,1.515-1.252,2.777-1.252,4.917c0,3.905,2.006,6.299,3.774,8.567
				c-5.663,0.39-16.237,1.018-24.033,5.809c-7.424,4.415-9.684,10.84-9.684,15.376c0,9.335,8.8,18.029,27.045,18.029
				c21.636,0,33.089-11.971,33.089-23.823C63.834,65.804,58.803,61.519,53.267,56.855z M36.788,42.357
				c-10.824,0-15.727-13.992-15.727-22.434c0-3.288,0.623-6.682,2.763-9.333c2.019-2.524,5.533-4.162,8.814-4.162
				c10.434,0,15.846,14.118,15.846,23.197c0,2.271-0.251,6.296-3.144,9.207C43.317,40.853,39.931,42.357,36.788,42.357z
				 M36.912,93.053c-13.46,0-22.139-6.438-22.139-15.392c0-8.949,8.048-11.977,10.816-12.979c5.281-1.778,12.076-2.025,13.21-2.025
				c1.258,0,1.887,0,2.889,0.126c9.568,6.81,13.721,10.203,13.721,16.65C55.41,87.239,48.992,93.053,36.912,93.053z"></path>
			<polygon points="85.036,42.165 85.036,29.56 78.811,29.56 78.811,42.165 66.226,42.165 66.226,48.459 78.811,48.459 78.811,61.142 
				85.036,61.142 85.036,48.459 97.684,48.459 97.684,42.165"></polygon>
		</g>
		<g id="instagram-icon">
			<path fill-rule="evenodd" clip-rule="evenodd" d="M13.804,1.303h72.393c6.875,0,12.5,5.09,12.5,12.5v72.394
			c0,7.411-5.625,12.5-12.5,12.5H13.804c-6.877,0-12.501-5.09-12.501-12.5V13.803C1.303,6.393,6.927,1.303,13.804,1.303L13.804,1.303z
			M72.251,12.124c-2.412,0-4.384,1.972-4.384,4.385v10.495c0,2.412,1.972,4.385,4.384,4.385h11.008c2.411,0,4.384-1.973,4.384-4.385
			V16.509c0-2.413-1.973-4.385-4.384-4.385H72.251L72.251,12.124z M87.69,42.49h-8.573c0.811,2.648,1.25,5.453,1.25,8.356
			c0,16.2-13.555,29.332-30.274,29.332c-16.718,0-30.272-13.132-30.272-29.332c0-2.904,0.438-5.708,1.25-8.356h-8.945v41.141
			c0,2.129,1.742,3.872,3.872,3.872h67.822c2.129,0,3.872-1.742,3.872-3.872V42.49L87.69,42.49z M50.092,30.836
			c-10.802,0-19.56,8.485-19.56,18.953c0,10.468,8.758,18.953,19.56,18.953c10.803,0,19.562-8.485,19.562-18.953
			C69.654,39.321,60.896,30.836,50.092,30.836z"></path>
		</g>
		<g id="twitter-icon">
			<path d="M98.705,19.707c-0.139-0.165-0.371-0.221-0.568-0.131c-2.919,1.295-5.99,2.226-9.153,2.776
			c3.358-2.526,5.86-6.024,7.142-10.035c0.062-0.192-0.002-0.402-0.159-0.527c-0.158-0.125-0.377-0.141-0.55-0.038
			c-3.782,2.243-7.878,3.824-12.179,4.701c-3.813-3.956-9.135-6.219-14.644-6.219c-11.204,0-20.318,9.114-20.318,20.317
			c0,1.355,0.131,2.697,0.391,4c-15.518-0.958-30.028-8.408-39.894-20.509c-0.101-0.124-0.254-0.193-0.414-0.177
			c-0.159,0.012-0.301,0.102-0.381,0.239c-1.8,3.088-2.751,6.621-2.751,10.215c0,6.229,2.83,12.053,7.649,15.896
			c-2.481-0.298-4.904-1.079-7.089-2.292c-0.147-0.083-0.33-0.082-0.477,0.003c-0.147,0.084-0.24,0.24-0.244,0.41l-0.002,0.26
			c0,8.946,5.895,16.801,14.282,19.409c-2.209,0.357-4.501,0.332-6.754-0.098c-0.166-0.03-0.34,0.027-0.454,0.155
			c-0.113,0.128-0.151,0.306-0.099,0.469c2.515,7.85,9.503,13.355,17.637,14.041c-6.785,4.97-14.805,7.589-23.279,7.589
			c-1.561,0-3.133-0.092-4.673-0.274c-0.22-0.025-0.438,0.106-0.514,0.318c-0.076,0.213,0.005,0.45,0.195,0.572
			c9.17,5.88,19.773,8.988,30.664,8.988c35.625,0,56.913-28.938,56.913-56.914c0-0.779-0.015-1.554-0.046-2.327
			c3.843-2.811,7.141-6.252,9.802-10.235C98.857,20.11,98.844,19.873,98.705,19.707z"></path>
		</g>
		<g id="vk-icon">
			<path fill-rule="evenodd" clip-rule="evenodd" d="M94.242,66.929c-2.873-3.446-6.254-6.387-9.453-9.509
			c-2.886-2.816-3.069-4.449-0.748-7.698c2.532-3.546,5.255-6.956,7.809-10.486c2.385-3.299,4.824-6.589,6.078-10.539
			c0.796-2.513,0.092-3.623-2.485-4.063c-0.444-0.077-0.903-0.081-1.355-0.081l-15.289-0.018c-1.883-0.028-2.924,0.793-3.59,2.462
			c-0.9,2.256-1.826,4.51-2.898,6.687c-2.429,4.936-5.143,9.707-8.949,13.747c-0.839,0.891-1.767,2.017-3.169,1.553
			c-1.754-0.64-2.27-3.53-2.242-4.507L57.936,26.83c-0.34-2.521-0.899-3.645-3.402-4.135l-15.882,0.003
			c-2.12,0-3.183,0.819-4.315,2.145c-0.653,0.766-0.85,1.263,0.492,1.517c2.636,0.5,4.121,2.206,4.515,4.849
			c0.632,4.223,0.588,8.463,0.224,12.703c-0.107,1.238-0.32,2.473-0.811,3.629c-0.768,1.817-2.008,2.187-3.637,1.069
			c-1.475-1.012-2.511-2.44-3.525-3.874c-3.809-5.382-6.848-11.186-9.326-17.285c-0.716-1.762-1.951-2.83-3.818-2.859
			c-4.587-0.073-9.175-0.085-13.762,0.004c-2.76,0.052-3.583,1.392-2.459,3.894c4.996,11.113,10.557,21.918,17.816,31.76
			c3.727,5.051,8.006,9.51,13.534,12.67c6.265,3.582,13.009,4.66,20.112,4.327c3.326-0.156,4.325-1.021,4.479-4.336
			c0.104-2.267,0.361-4.523,1.48-6.56c1.098-2,2.761-2.381,4.678-1.136c0.959,0.623,1.766,1.415,2.53,2.252
			c1.872,2.047,3.677,4.158,5.62,6.136c2.437,2.481,5.324,3.946,8.954,3.646l14.054,0.002c2.264-0.148,3.438-2.923,2.138-5.451
			C96.712,70.031,95.514,68.454,94.242,66.929z"></path>
		</g>
		<g id="youtube-icon">
			<path d="M86.948,50.569c-0.937-4.071-4.267-7.074-8.275-7.521c-9.49-1.06-19.098-1.065-28.661-1.06
				c-9.566-0.005-19.173,0-28.665,1.06c-4.006,0.448-7.334,3.451-8.27,7.521c-1.334,5.797-1.35,12.125-1.35,18.094
				s0,12.296,1.334,18.093c0.936,4.07,4.264,7.073,8.272,7.521c9.49,1.061,19.097,1.066,28.662,1.061
				c9.566,0.005,19.171,0,28.663-1.061c4.006-0.448,7.336-3.451,8.273-7.521c1.333-5.797,1.34-12.124,1.34-18.093
				S88.281,56.366,86.948,50.569z M33.561,55.062h-5.54v29.439h-5.146V55.062h-5.439V50.24h16.125V55.062z M47.538,84.501h-4.629
				v-2.785c-1.839,2.108-3.585,3.136-5.286,3.136c-1.491,0-2.517-0.605-2.98-1.898c-0.252-0.773-0.408-1.994-0.408-3.796V58.973h4.625
				v18.795c0,1.084,0,1.647,0.042,1.798c0.111,0.718,0.462,1.082,1.082,1.082c0.928,0,1.898-0.715,2.924-2.165V58.973h4.629V84.501z
				 M65.111,76.839c0,2.361-0.159,4.062-0.468,5.144c-0.618,1.899-1.855,2.869-3.695,2.869c-1.646,0-3.235-0.914-4.781-2.825v2.474
				h-4.625V50.24h4.625v11.19c1.493-1.839,3.08-2.769,4.781-2.769c1.84,0,3.078,0.969,3.695,2.88c0.311,1.027,0.468,2.715,0.468,5.132
				V76.839z M82.568,72.58h-9.251v4.526c0,2.363,0.774,3.542,2.363,3.542c1.139,0,1.802-0.619,2.067-1.855
				c0.042-0.251,0.103-1.279,0.103-3.134h4.719v0.675c0,1.491-0.057,2.518-0.099,2.981c-0.155,1.024-0.519,1.952-1.08,2.771
				c-1.281,1.854-3.179,2.768-5.595,2.768c-2.419,0-4.262-0.871-5.598-2.615c-0.982-1.278-1.486-3.29-1.486-6.003v-8.941
				c0-2.728,0.447-4.724,1.43-6.015c1.336-1.747,3.177-2.617,5.54-2.617c2.321,0,4.162,0.87,5.457,2.617
				c0.969,1.291,1.432,3.287,1.432,6.015V72.58z"></path>
			<path d="M75.638,62.825c-1.546,0-2.321,1.181-2.321,3.541v2.363h4.625v-2.363C77.942,64.006,77.169,62.825,75.638,62.825z"></path>
			<path d="M58.473,62.825c-0.761,0-1.534,0.361-2.307,1.125v15.559c0.773,0.774,1.545,1.139,2.307,1.139
				c1.334,0,2.012-1.139,2.012-3.445V66.309C60.485,64.006,59.807,62.825,58.473,62.825z"></path>
			<path d="M61.057,39.635c1.705,0,3.479-1.036,5.34-3.168v2.814h4.675V13.482h-4.675v19.718c-1.036,1.464-2.017,2.188-2.953,2.188
				c-0.626,0-0.994-0.37-1.096-1.095c-0.056-0.153-0.056-0.722-0.056-1.817V13.482h-4.661v20.4c0,1.822,0.157,3.055,0.415,3.836
				C58.514,39.025,59.551,39.635,61.057,39.635z"></path>
			<path d="M28.511,25.26v14.021h5.184V25.26l6.237-20.598H34.69l-3.537,13.595l-3.68-13.595h-5.455
				c1.093,3.209,2.23,6.434,3.323,9.646C27.004,19.136,28.042,22.776,28.511,25.26z"></path>
			<path d="M46.88,39.635c2.342,0,4.162-0.881,5.453-2.641c0.981-1.291,1.451-3.325,1.451-6.067v-9.034
				c0-2.758-0.469-4.774-1.451-6.077c-1.292-1.765-3.111-2.646-5.453-2.646c-2.33,0-4.149,0.881-5.443,2.646
				c-0.993,1.303-1.463,3.319-1.463,6.077v9.034c0,2.742,0.47,4.776,1.463,6.067C42.73,38.754,44.55,39.635,46.88,39.635z
				 M44.649,20.956c0-2.387,0.724-3.577,2.231-3.577c1.507,0,2.229,1.189,2.229,3.577v10.852c0,2.387-0.722,3.581-2.229,3.581
				c-1.507,0-2.231-1.194-2.231-3.581V20.956z"></path>
		</g>	
			<g id="star-mark" >
				<ellipse ry="45" rx="45" cy="60.38673" cx="61.03714" stroke-width="3" stroke="#161616" />
				<polygon stroke-width="0" stroke="#161616" points="61.3818359375,27.609596252441406 71.05059051513672,47.200618743896484 92.6705551147461,50.342185974121094 77.02619934082031,65.5916748046875 80.71934509277344,87.12428283691406 61.3818359375,76.95794677734375 42.04436111450195,87.12428283691406 45.73748779296875,65.5916748046875 30.09313201904297,50.342185974121094 51.71309280395508,47.200618743896484 61.3818359375,27.609596252441406 71.05059051513672,47.200618743896484 " fill="#161616"/>
			</g>
			
			<g id="close-mark">
				<ellipse ry="45" rx="45" cy="57.38673" cx="57.78714" stroke-width="3" stroke="#161616"/>
				<path stroke-width="0" stroke="#161616" d="m78.07651,71.62448l-13.38843,-13.38814l13.38467,-13.38931l-6.8838,-6.89012l-13.38457,13.38705l-13.38879,-13.38705l-6.87959,6.89012l13.38513,13.38931l-13.38928,13.38814l6.88745,6.88307l13.3851,-13.38701l13.38457,13.38701"  fill="#161616"/>
			</g>


	
	</defs>
</svg>